<svg xmlns="http://www.w3.org/2000/svg" width="15.575" height="15.606" viewBox="0 0 15.575 15.606">
  <path id="Icon_feather-phone" data-name="Icon feather-phone" d="M18.742,14.684v2.349A1.566,1.566,0,0,1,17.035,18.6a15.5,15.5,0,0,1-6.758-2.4,15.271,15.271,0,0,1-4.7-4.7,15.5,15.5,0,0,1-2.4-6.79A1.566,1.566,0,0,1,4.733,3H7.082A1.566,1.566,0,0,1,8.648,4.347a10.055,10.055,0,0,0,.548,2.2A1.566,1.566,0,0,1,8.844,8.2l-.995.995a12.53,12.53,0,0,0,4.7,4.7l.995-.995a1.566,1.566,0,0,1,1.652-.352,10.055,10.055,0,0,0,2.2.548,1.566,1.566,0,0,1,1.347,1.59Z" transform="translate(-3.168 -3)" fill="#f79328"/>
</svg>
