<svg xmlns="http://www.w3.org/2000/svg" width="20.957" height="16.625" viewBox="0 0 20.957 16.625">
  <g id="Icon_ionic-md-mail-unread" data-name="Icon ionic-md-mail-unread" transform="translate(-2.25 -4.5)">
    <path id="Path_8767" data-name="Path 8767" d="M31.656,7.391A2.891,2.891,0,1,1,28.766,4.5a2.891,2.891,0,0,1,2.891,2.891Z" transform="translate(-8.45 0)" fill="#f79328"/>
    <path id="Path_8768" data-name="Path 8768" d="M18.1,11.2l-5.731,3.821-7.949-5.3V7.793l7.949,5.3,4.566-3.044a4.061,4.061,0,0,1-.054-4.422H4.179A1.933,1.933,0,0,0,2.25,7.554V19.6a1.933,1.933,0,0,0,1.929,1.929H20.56A1.933,1.933,0,0,0,22.488,19.6V11.23A4.066,4.066,0,0,1,18.1,11.2Z" transform="translate(0 -0.402)" fill="#f79328"/>
  </g>
</svg>
