<svg id="noun-cruise-3705343" xmlns="http://www.w3.org/2000/svg" width="47.996" height="24.391" viewBox="0 0 47.996 24.391">
  <path id="Path_8860" data-name="Path 8860" d="M33.894,47.12a1,1,0,0,0,.7-.29,3.625,3.625,0,0,1,3.44-.96.98.98,0,0,0,.61-.04A25.39,25.39,0,0,0,47,40.44l6.69-6.46a.987.987,0,0,0,.23-1.09,1.026,1.026,0,0,0-.93-.63H7.154a1,1,0,0,0-.81.41.979.979,0,0,0-.14.89l3.68,11.51a.946.946,0,0,0,.98.69,3.663,3.663,0,0,1,2.68,1.05.99.99,0,0,0,.71.29h0a1.033,1.033,0,0,0,.71-.29,3.715,3.715,0,0,1,5.13,0,.99.99,0,0,0,.71.29h0a1.033,1.033,0,0,0,.71-.29,3.579,3.579,0,0,1,3.45-.94,3.514,3.514,0,0,1,1.68.94,1,1,0,0,0,1.41,0,3.63,3.63,0,0,1,5.13,0A.949.949,0,0,0,33.894,47.12Zm-3.27-3.35a5.7,5.7,0,0,0-3.28,1.04,5.348,5.348,0,0,0-1.91-.87,5.654,5.654,0,0,0-4.64.87,5.768,5.768,0,0,0-6.55,0,5.628,5.628,0,0,0-2.68-1.01l-3.05-9.54h42L45.614,39a23.433,23.433,0,0,1-7.43,4.86,5.576,5.576,0,0,0-4.29.95A5.668,5.668,0,0,0,30.624,43.77Z" transform="translate(-6.154 -22.742)"/>
  <path id="Path_8863" data-name="Path 8863" d="M21.37,39.53h2.27a1,1,0,0,0,0-2H21.37a1,1,0,0,0,0,2Z" transform="translate(8.99 -22.742)"/>
  <path id="Path_8864" data-name="Path 8864" d="M28.42,39.53h2.27a1,1,0,0,0,0-2H28.42a1,1,0,0,0,0,2Z" transform="translate(-5.11 -22.742)"/>
  <path id="Path_8865" data-name="Path 8865" d="M35.47,39.53h2.27a1,1,0,0,0,0-2H35.47a1,1,0,0,0,0,2Z" transform="translate(-19.21 -22.742)"/>
  <path id="Path_8866" data-name="Path 8866" d="M42.52,39.53h2.27a1,1,0,0,0,0-2H42.52a1,1,0,0,0,0,2Z" transform="translate(-33.31 -22.742)"/>
  <path id="Path_8867" data-name="Path 8867" d="M39.35,47.12a1.024,1.024,0,0,0,.71-.29,3.664,3.664,0,0,1,5.15,0,1,1,0,0,0,1.41,0,3.638,3.638,0,0,1,4.83-.27A1,1,0,0,0,52.69,45a5.629,5.629,0,0,0-6.78-.17,5.665,5.665,0,0,0-6.55,0,5.291,5.291,0,0,0-1.93-.88,5.607,5.607,0,0,0-4.62.88,5.665,5.665,0,0,0-6.55,0,5.348,5.348,0,0,0-1.91-.87,5.654,5.654,0,0,0-4.64.87,5.768,5.768,0,0,0-6.55,0A5.668,5.668,0,0,0,6.38,45a1,1,0,0,0,1.25,1.57,3.577,3.577,0,0,1,2.14-.78,3.526,3.526,0,0,1,2.69,1.05.99.99,0,0,0,.71.29h0a1.033,1.033,0,0,0,.71-.29,3.715,3.715,0,0,1,5.13,0,.99.99,0,0,0,.71.29h0a1.033,1.033,0,0,0,.71-.29,3.579,3.579,0,0,1,3.45-.94,3.514,3.514,0,0,1,1.68.94,1,1,0,0,0,1.41,0,3.652,3.652,0,0,1,5.14,0,1,1,0,0,0,1.41,0,3.648,3.648,0,0,1,5.14-.01A.961.961,0,0,0,39.35,47.12Z" transform="translate(-5.07 -22.742)"/>
  <path id="Path_8871" data-name="Path 8871" d="M36.88,26.3h5.43a1,1,0,0,0,1-1V16.76a1,1,0,0,0-1-1H36.88a1,1,0,0,0-1,1V25.3A1,1,0,0,0,36.88,26.3Zm4.43-2H37.88V17.76h3.43Z" transform="translate(-28.05 -15.76)"/>
</svg>
